<svg width="200" height="200" viewBox="0 0 200 200" fill="none" xmlns="http://www.w3.org/2000/svg">
<path d="M196.346 91.1003C196.338 91.1003 196.338 91.0962 196.338 91.0962L108.846 3.54741C104.126 -1.18383 95.8659 -1.17976 91.1621 3.54334L3.65397 91.1003C1.30208 93.4659 0 96.6052 0 99.9397C0 103.278 1.30208 106.421 3.66211 108.783L91.154 196.332C93.514 198.697 96.6553 200 100 200C103.345 200 106.486 198.697 108.838 196.336L196.338 108.783C198.698 106.421 200 103.278 200 99.9397C200 96.6052 198.698 93.4659 196.346 91.1003Z" fill="#FF5400"/>
<path opacity="0.1" d="M197.341 105.749L108.93 194.214C106.554 196.6 103.379 197.917 100 197.917C96.6208 197.917 93.4464 196.6 91.062 194.21L2.65865 105.749C1.62563 104.715 0.836243 103.513 0.224365 102.23C0.679077 104.697 1.85197 106.971 3.66217 108.783L91.154 196.331C93.5141 198.697 96.6553 200 100 200C103.345 200 106.486 198.697 108.838 196.335L196.338 108.783C198.148 106.971 199.322 104.697 199.776 102.23C199.164 103.513 198.375 104.715 197.341 105.749Z" fill="#010101"/>
<path d="M141.667 83.3335C138.543 83.3335 135.65 84.2506 133.148 85.7525L114.248 66.852C115.749 64.3506 116.667 61.458 116.667 58.3335C116.667 49.1416 109.188 41.6668 100 41.6668C96.9177 41.6668 94.0643 42.5651 91.5848 44.0299L71.137 23.5796L65.2466 29.473L85.6939 49.9229C84.2311 52.4009 83.3333 55.2528 83.3333 58.3335C83.3333 66.0779 88.6668 72.545 95.8333 74.4081V125.592C88.6668 127.455 83.3333 133.923 83.3333 141.667C83.3333 150.859 90.8122 158.334 100 158.334C109.188 158.334 116.667 150.859 116.667 141.667C116.667 133.923 111.333 127.455 104.167 125.592V74.4081C105.64 74.0251 107.021 73.4428 108.307 72.6956L127.305 91.6928C125.878 94.1484 125 96.9611 125 100C125 109.192 132.479 116.667 141.667 116.667C150.854 116.667 158.333 109.192 158.333 100C158.333 90.8083 150.854 83.3335 141.667 83.3335Z" fill="white"/>
<path opacity="0.2" d="M3.65397 93.1836L91.1621 5.62668C95.8659 0.903575 104.126 0.899506 108.846 5.63075L196.338 93.1796C196.338 93.1796 196.338 93.1836 196.346 93.1836C198.449 95.2985 199.654 98.0441 199.898 100.982C199.927 100.633 200 100.294 200 99.9397C200 96.6052 198.698 93.4659 196.346 91.1003C196.338 91.1003 196.338 91.0962 196.338 91.0962L108.846 3.54741C104.126 -1.18383 95.8659 -1.17976 91.1621 3.54334L3.65397 91.1003C1.30208 93.4659 0 96.6052 0 99.9397C0 100.293 0.0727333 100.632 0.101725 100.981C0.346374 98.0431 1.55182 95.298 3.65397 93.1836Z" fill="white"/>
</svg>
