<?xml version="1.0" encoding="UTF-8"?><svg id="Livello_2" xmlns="http://www.w3.org/2000/svg" viewBox="0 0 1015.38 1015.38"><defs><style>.cls-1{fill:#1d1d1f;}.cls-2{fill:#f5f5f7;}</style></defs><g id="Livello_2-2"><circle class="cls-2" cx="507.69" cy="507.69" r="507.69"/><g><path class="cls-1" d="M418.72,622.78c-2.43-5.29-8.94-7.34-13.81-4.16-21.83,14.26-47.9,22.57-75.93,22.57-38.41,0-73.19-15.57-98.36-40.73-25.18-25.18-40.75-59.95-40.75-98.36s15.57-73.19,40.75-98.37c25.17-25.17,59.95-40.73,98.36-40.73,28.03,0,54.1,8.3,75.93,22.57,4.87,3.18,11.39,1.13,13.82-4.15,11.57-25.2,26.64-48.47,44.59-69.19,3.83-4.42,2.88-11.15-2.02-14.33-38.08-24.73-83.51-39.1-132.31-39.1-67.17,0-128.01,27.24-172.03,71.27-44.03,44.03-71.27,104.86-71.27,172.05s27.24,128.01,71.27,172.03c44.01,44.03,104.86,71.27,172.03,71.27,48.79,0,94.22-14.37,132.31-39.1,4.9-3.18,5.85-9.92,2.02-14.33-17.95-20.71-33.02-43.99-44.59-69.19Z"/><path class="cls-1" d="M926.8,680.02l-46.15-46.15c24.14-37.39,38.31-81.82,38.74-129.54,1.22-134.6-108.49-245.44-243.09-245.56-134.56-.11-243.65,109-243.52,243.56,.13,134.3,110.49,243.86,244.79,243.06,47.54-.28,91.84-14.2,129.21-38.04l46.35,46.35c3.86,3.86,10.11,3.86,13.97,0l59.72-59.72c3.86-3.86,3.86-10.11,0-13.97Zm-250.72-38.83c-77.94,0-140.91-64.1-139.07-142.46,1.74-73.79,61.92-133.97,135.71-135.71,78.36-1.84,142.46,61.13,142.46,139.07,0,19.54-4.05,38.13-11.32,55l-37.23-37.23c-3.86-3.86-10.11-3.86-13.97,0l-59.72,59.72c-3.86,3.86-3.86,10.11,0,13.97l36.87,36.87c-16.54,6.93-34.69,10.77-53.74,10.77Z"/></g></g></svg>
