<?xml version="1.0" standalone="no"?>
<!DOCTYPE svg PUBLIC "-//W3C//DTD SVG 20010904//EN"
 "http://www.w3.org/TR/2001/REC-SVG-20010904/DTD/svg10.dtd">
<svg version="1.0" xmlns="http://www.w3.org/2000/svg"
 width="200.000000pt" height="200.000000pt" viewBox="0 0 200.000000 200.000000"
 preserveAspectRatio="xMidYMid meet">

<g transform="translate(0.000000,200.000000) scale(0.100000,-0.100000)"
fill="#000000" stroke="none">
<path d="M895 1879 c-219 -28 -436 -150 -575 -325 -62 -78 -72 -99 -42 -90 42
13 288 66 398 85 373 66 766 68 972 6 30 -9 55 -15 57 -13 9 8 -76 96 -144
150 -131 105 -282 167 -451 188 -95 11 -116 11 -215 -1z"/>
<path d="M635 1453 c-33 -2 -133 -10 -223 -18 -90 -8 -168 -15 -173 -15 -17 0
-68 -124 -90 -218 -28 -115 -23 -338 10 -446 93 -311 337 -543 648 -617 74
-18 111 -20 233 -17 133 4 153 7 244 39 55 19 101 39 103 45 6 18 -267 294
-376 382 -84 68 -297 214 -408 280 l-38 23 56 -5 c314 -31 630 -31 791 -2 228
42 328 114 328 236 -1 185 -198 295 -590 330 -106 9 -370 11 -515 3z"/>
<path d="M1827 774 c-120 -65 -499 -101 -697 -67 -34 6 -32 3 71 -105 58 -61
145 -165 194 -230 l90 -120 44 31 c98 67 212 200 271 317 18 36 70 174 70 187
0 6 -16 2 -43 -13z"/>
</g>
</svg>
